<?xml version="1.0" standalone="no"?>
<!DOCTYPE svg PUBLIC "-//W3C//DTD SVG 20010904//EN"
 "http://www.w3.org/TR/2001/REC-SVG-20010904/DTD/svg10.dtd">
<svg version="1.0" xmlns="http://www.w3.org/2000/svg"
 width="700.000000pt" height="700.000000pt" viewBox="0 0 700.000000 700.000000"
 preserveAspectRatio="xMidYMid meet">
<metadata>
Created by potrace 1.14, written by Peter Selinger 2001-2017
</metadata>
<g transform="translate(0.000000,700.000000) scale(0.100000,-0.100000)"
fill="#000000" stroke="none">
<path d="M492 6980 c-117 -31 -206 -83 -297 -175 -93 -92 -145 -181 -175 -301
-20 -76 -20 -121 -20 -2448 0 -2019 2 -2381 15 -2439 29 -139 140 -294 262
-369 71 -43 142 -68 518 -181 28 -8 352 -108 720 -222 369 -114 693 -213 720
-222 234 -70 601 -186 607 -191 3 -4 45 -84 92 -179 91 -181 124 -222 198
-244 18 -5 187 -9 377 -9 452 1 425 -12 563 270 l82 166 75 24 c42 13 81 25
86 26 17 4 130 39 355 109 384 119 665 206 680 210 8 2 119 36 245 75 127 40
244 76 260 80 17 4 68 20 115 35 47 14 108 33 135 42 273 83 478 147 515 160
134 49 266 175 325 307 59 132 55 -47 52 2566 -2 2167 -4 2400 -18 2445 -28
88 -67 164 -112 223 -92 118 -184 182 -346 240 -42 15 -288 17 -3001 19 -2882
2 -2957 2 -3028 -17z"/>
</g>
</svg>
